<svg width="14" height="15" viewBox="0 0 14 15" fill="none" xmlns="http://www.w3.org/2000/svg">
<path d="M0.333984 4.56882H3.11176V14.0133H0.333984V4.56882ZM1.71454 3.45771H1.69898C0.870095 3.45771 0.333984 2.83993 0.333984 2.06826C0.333984 1.27993 0.886762 0.679932 1.73065 0.679932C2.57565 0.679932 3.09621 1.27993 3.11176 2.06826C3.11176 2.83938 2.57565 3.45771 1.71454 3.45771ZM13.6673 14.0133H10.8895V8.95826C10.8895 7.73715 10.209 6.90382 9.11621 6.90382C8.28232 6.90382 7.83121 7.46604 7.61232 8.00938C7.53232 8.20382 7.55621 8.7416 7.55621 9.01326V14.0133H4.77843V4.56882H7.55621V6.02215C7.95676 5.40215 8.58398 4.56882 10.1884 4.56882C12.1762 4.56882 13.6668 5.81882 13.6668 8.60993L13.6673 14.0133Z" fill="#003780"/>
</svg>
