<svg width="18" height="15" viewBox="0 0 18 15" fill="none" xmlns="http://www.w3.org/2000/svg">
<path d="M17.028 0.705835C16.3488 1.02667 15.193 1.62833 14.6121 1.74333C14.5896 1.74917 14.5713 1.75667 14.5496 1.7625C13.8721 1.09417 12.9438 0.680001 11.9163 0.680001C9.84545 0.680001 8.16629 2.35917 8.16629 4.43C8.16629 4.53917 8.15712 4.74 8.16629 4.84667C5.48462 4.84667 3.52629 3.4475 2.06045 1.64917C1.86462 1.4075 1.65629 1.53333 1.61295 1.705C1.51545 2.09333 1.48212 2.7425 1.48212 3.20583C1.48212 4.37333 2.39462 5.52 3.81545 6.23083C3.55379 6.29833 3.26545 6.34667 2.96545 6.34667C2.61212 6.34667 2.20545 6.25417 1.84962 6.0675C1.71795 5.99833 1.43379 6.0175 1.51795 6.35417C1.85545 7.70333 3.39545 8.65083 4.77129 8.92667C4.45879 9.11084 3.79212 9.07333 3.48545 9.07333C3.37212 9.07333 2.97795 9.04667 2.72295 9.015C2.49045 8.98667 2.13295 9.04667 2.43212 9.5C3.07462 10.4725 4.52795 11.0833 5.77879 11.1067C4.62712 12.01 2.74379 12.34 0.939619 12.34C0.574619 12.3317 0.592953 12.7475 0.887119 12.9017C2.21795 13.6 4.39795 14.0133 5.95545 14.0133C12.1471 14.0133 15.6663 9.29417 15.6663 4.84583C15.6663 4.77417 15.6646 4.62417 15.6621 4.47333C15.6621 4.45833 15.6663 4.44417 15.6663 4.42917C15.6663 4.40667 15.6596 4.385 15.6596 4.3625C15.6571 4.24917 15.6546 4.14333 15.6521 4.08833C16.143 3.73417 16.8946 3.11917 17.2746 2.64833C17.4038 2.48833 17.2996 2.29417 17.1238 2.355C16.6713 2.5125 15.8888 2.8175 15.3988 2.87583C16.3796 2.22667 16.8646 1.66167 17.2813 1.03417C17.4238 0.820001 17.2455 0.602501 17.028 0.705835Z" fill="#003780"/>
</svg>
